HIERARCHY
ROOT root
{
	OFFSET	0	13.1	24.9
	CHANNELS 6  Xposition Yposition Zposition Xrotation Yrotation Zrotation
	JOINT spine_1
	{
		OFFSET	0	9.99999	0
		CHANNELS 3  Xrotation Yrotation Zrotation
		JOINT spine_2
		{
			OFFSET	0	112	-10
			CHANNELS 3  Xrotation Yrotation Zrotation
			JOINT spine_3
			{
				OFFSET	0	206.5	19.3
				CHANNELS 3  Xrotation Yrotation Zrotation
				JOINT spine_4
				{
					OFFSET	0	110.4	14.6
					CHANNELS 3  Xrotation Yrotation Zrotation
					JOINT neck_1
					{
						OFFSET	0	71.8	-50.3
						CHANNELS 3  Xrotation Yrotation Zrotation
						JOINT neck_2
						{
							OFFSET	0	86.2	-25.8
							CHANNELS 3  Xrotation Yrotation Zrotation
							JOINT head_ee
							{
								OFFSET	0	179.8	-8.7
								CHANNELS 3  Xrotation Yrotation Zrotation
								End Site
								{
									OFFSET	1	0	0
								}
							}
						}
					}
					JOINT left_clavicle
					{
						OFFSET	-43.2	22.4	-70.8
						CHANNELS 3  Xrotation Yrotation Zrotation
						JOINT left_shoulder
						{
							OFFSET	-93.9	-5.79999	48.7
							CHANNELS 3  Xrotation Yrotation Zrotation
							JOINT left_elbow
							{
								OFFSET	-291.4	-30.8	15.2
								CHANNELS 3  Xrotation Yrotation Zrotation
								JOINT left_lowarm_twist
								{
									OFFSET	-110.7	-3.89999	13.6
									CHANNELS 3  Xrotation Yrotation Zrotation
									JOINT left_hand
									{
										OFFSET	-110.7	-3.89999	13.6
										CHANNELS 3  Xrotation Yrotation Zrotation
										JOINT left_ee
										{
											OFFSET	-80.8	-5.10001	12.1
											CHANNELS 3  Xrotation Yrotation Zrotation
											End Site
											{
												OFFSET	1	0	0
											}
										}
									}
								}
							}
						}
					}
					JOINT right_clavicle
					{
						OFFSET	43.2	22.4	-70.8
						CHANNELS 3  Xrotation Yrotation Zrotation
						JOINT right_shoulder
						{
							OFFSET	93.9	-5.79999	48.7
							CHANNELS 3  Xrotation Yrotation Zrotation
							JOINT right_elbow
							{
								OFFSET	291.4	-30.8	15.2
								CHANNELS 3  Xrotation Yrotation Zrotation
								JOINT right_lowarm_twist
								{
									OFFSET	110.7	-3.89999	13.6
									CHANNELS 3  Xrotation Yrotation Zrotation
									JOINT right_hand
									{
										OFFSET	110.7	-3.89999	13.6
										CHANNELS 3  Xrotation Yrotation Zrotation
										JOINT right_ee
										{
											OFFSET	80.8	-5.10001	12.1
											CHANNELS 3  Xrotation Yrotation Zrotation
											End Site
											{
												OFFSET	1	0	0
											}
										}
									}
								}
							}
						}
					}
				}
			}
		}
	}
	JOINT left_hip
	{
		OFFSET	-82.8	-127.5	0.300001
		CHANNELS 3  Xrotation Yrotation Zrotation
		JOINT left_knee
		{
			OFFSET	-28.2	-396.7	2.2
			CHANNELS 3  Xrotation Yrotation Zrotation
			JOINT left_ankle
			{
				OFFSET	-11.7	-411.3	35.4
				CHANNELS 3  Xrotation Yrotation Zrotation
				JOINT left_toes
				{
					OFFSET	0	-60	-88.6
					CHANNELS 3  Xrotation Yrotation Zrotation
					JOINT left_foot_ee
					{
						OFFSET	-22.5	-16.5	-42.2
						CHANNELS 3  Xrotation Yrotation Zrotation
						End Site
						{
							OFFSET	1	0	0
						}
					}
				}
			}
		}
	}
	JOINT right_hip
	{
		OFFSET	82.8	-127.5	0.300001
		CHANNELS 3  Xrotation Yrotation Zrotation
		JOINT right_knee
		{
			OFFSET	28.2	-396.7	2.2
			CHANNELS 3  Xrotation Yrotation Zrotation
			JOINT right_ankle
			{
				OFFSET	11.7	-411.3	35.4
				CHANNELS 3  Xrotation Yrotation Zrotation
				JOINT right_toes
				{
					OFFSET	0	-60	-88.6
					CHANNELS 3  Xrotation Yrotation Zrotation
					JOINT right_foot_ee
					{
						OFFSET	22.5	-16.5	-42.2
						CHANNELS 3  Xrotation Yrotation Zrotation
						End Site
						{
							OFFSET	1	0	0
						}
					}
				}
			}
		}
	}
}
MOTION
Frames: 11
Frame Time: 0.02
1073.12 682.731 -1462.65 24.5667 85.0892 -15.5515 0.490786 -0.702874 -2.81861 0.495054 -0.522169 -2.85758 0.52314 0.0634031 -2.90417 0.511588 -0.395858 -2.87778 -16.8682 7.4187 3.61991 -16.9892 12.2148 6.09773 -0.0 0.0 -0.0 7.35234 17.4667 13.5185 10.7488 -23.9116 66.3835 1.4282 -35.277 0.45413 -35.1942 -2.45517 3.69458 2.62294 25.8996 25.8893 -0.0 0.0 -0.0 10.1426 -2.8115 -19.7813 -16.4769 5.14045 -57.4269 0.177197 5.0166 -0.00776237 -75.2589 7.21795 -5.31841 -6.12657 -21.3095 28.822 0.0 0.0 0.0 3.39139 8.71805 -11.8102 -1.92862 0.0745918 0.286564 25.9694 -15.4277 -3.71074 -13.2251 0.0 0.0 -0.0 0.0 -0.0 11.4538 -13.7576 -7.22696 -45.6739 0.866612 -6.77359 36.6406 -26.607 4.88384 6.19597 -0.0 -0.0 0.0 0.0 0.0 
1059.92 685.948 -1458.76 31.308 85.0936 -22.0682 0.101349 -0.791008 -3.00406 0.10617 -0.59834 -3.04825 0.14094 0.047803 -3.106 0.127753 -0.443096 -3.07463 -17.7044 7.57412 3.98472 -17.8359 12.3863 6.59518 -0.0 0.0 -0.0 7.49167 16.3805 13.8338 12.9197 -24.407 66.8376 1.5087 -36.7707 0.501475 -33.9334 -2.33029 3.59179 2.42903 24.8375 24.4226 -0.0 0.0 -0.0 10.1512 -3.19335 -19.7718 -17.3864 4.78484 -56.4757 0.176673 5.00182 -0.00771648 -75.3177 7.22545 -5.31824 -6.1575 -20.5759 29.6553 0.0 0.0 0.0 2.0367 7.97231 -11.5991 -2.32943 0.0888788 0.346417 25.5476 -15.8129 -3.66977 -13.3567 0.0 0.0 -0.0 0.0 -0.0 15.0524 -15.4149 -6.20858 -44.4079 0.770736 -6.60402 35.0405 -25.1574 4.67075 6.53004 -0.0 -0.0 0.0 0.0 0.0 
1046.65 690.087 -1455.15 31.6501 86.8551 -22.6896 0.0385607 -1.08181 -3.2122 0.0438749 -0.875327 -3.27443 0.0976687 -0.174059 -3.38482 0.0823773 -0.706148 -3.31499 -15.4479 8.04499 5.49223 -15.4951 12.1914 7.90048 -0.0 0.0 -0.0 7.73642 15.6102 14.3025 14.5574 -24.581 67.8697 1.56249 -37.7376 0.534038 -35.2481 -2.46055 3.69891 1.52709 24.4166 18.7243 -0.0 0.0 -0.0 10.1644 -5.71327 -19.5982 -19.4335 3.79564 -54.0678 0.203379 5.75316 -0.0102194 -75.0015 7.18506 -5.31907 -6.37217 -21.9485 29.9744 0.0 0.0 0.0 -0.0628753 10.8045 -10.5921 3.34468 -0.152114 -0.490586 20.31 -18.2695 -3.06322 -12.3065 0.0 0.0 -0.0 0.0 -0.0 16.1843 -8.10837 -7.96858 -39.9854 0.465837 -5.99624 31.0552 -27.203 4.28766 5.6582 -0.0 -0.0 0.0 0.0 0.0 
1044.21 690.029 -1452.56 34.7434 86.4325 -25.6391 -0.22915 -1.26765 -3.39436 -0.223352 -1.04923 -3.46802 -0.154953 -0.288217 -3.61162 -0.172135 -0.854633 -3.52097 -15.582 8.52766 6.82765 -15.5869 12.3554 9.3279 -0.0 0.0 -0.0 7.96466 14.4352 14.7865 17.2621 -24.9174 68.4352 1.5858 -38.1489 0.548371 -38.2495 -2.76695 3.93212 0.273813 28.0159 12.5271 -0.0 0.0 -0.0 10.6589 -6.13146 -20.5343 -21.0935 3.02254 -51.5693 0.217015 6.13605 -0.0116316 -75.134 7.20199 -5.31875 -6.58808 -21.8403 31.5883 0.0 0.0 0.0 -0.977579 10.9711 -10.169 4.84364 -0.229546 -0.707461 19.0534 -17.6827 -2.87909 -12.5873 0.0 0.0 -0.0 0.0 -0.0 17.0729 -7.41665 -8.50667 -37.7043 0.327211 -5.6742 27.5122 -26.9869 3.86161 1.76361 -0.0 -0.0 0.0 0.0 0.0 
1032.45 690.697 -1452.91 39.0997 86.2552 -29.8262 -0.356223 -1.17349 -3.57222 -0.349619 -0.943953 -3.63954 -0.284204 -0.140181 -3.75719 -0.303154 -0.731392 -3.68807 -17.4213 8.32616 7.47392 -17.4158 11.8839 10.0749 -0.0 0.0 -0.0 8.31513 14.0213 15.4234 19.2044 -25.1583 69.1505 1.59392 -38.2912 0.553398 -39.3855 -2.88605 4.01617 -0.625936 28.3237 7.66828 -0.0 0.0 -0.0 10.7511 -6.72234 -20.6555 -22.479 2.28356 -50.7544 0.234829 6.63541 -0.0136131 -75.1434 7.2032 -5.31873 -6.20418 -21.8977 28.8576 0.0 0.0 0.0 -2.58285 12.8678 -9.70934 6.26727 -0.308332 -0.911535 19.567 -16.3419 -2.91806 -12.2724 0.0 0.0 -0.0 0.0 -0.0 20.677 -5.65357 -10.0304 -29.8633 -0.0492797 -4.5311 19.8908 -27.3223 2.8944 -0.169635 0.0 0.0 0.0 0.0 0.0 
1020.23 691.009 -1451.33 17.2993 85.1374 -7.8374 -0.309154 -0.927707 -3.85214 -0.301157 -0.680897 -3.90326 -0.249127 0.171616 -3.9584 -0.270699 -0.455198 -3.93592 -16.459 9.49333 6.81774 -16.5332 14.3504 9.7773 -0.0 0.0 -0.0 8.54301 13.488 15.8679 20.4899 -25.1562 69.0867 1.60484 -38.4815 0.560179 -41.2098 -3.08073 4.14619 -1.05923 26.5076 4.54603 -0.0 0.0 -0.0 10.8498 -7.66117 -20.7457 -23.1489 1.95091 -49.375 0.243392 6.87507 -0.0146202 -75.3122 7.22476 -5.31826 -6.17182 -22.0218 28.5304 0.0 0.0 0.0 -2.55029 14.1424 -9.83101 6.82555 -0.340611 -0.991029 20.9688 -16.0768 -3.09774 -13.5754 0.0 0.0 -0.0 0.0 -0.0 21.3149 -1.43964 -10.4759 -23.2991 -0.241894 -3.54268 12.8396 -24.6494 1.88832 -3.74093 0.0 0.0 0.0 0.0 0.0 
1009.56 693.181 -1449.99 8.95906 83.7672 0.318174 -0.284098 -0.712677 -4.05647 -0.27506 -0.453331 -4.09351 -0.236995 0.434443 -4.09555 -0.26033 -0.217261 -4.11277 -17.6208 9.83369 9.06879 -17.6017 13.9465 12.1449 -0.0 0.0 -0.0 8.82419 13.2686 16.381 20.5465 -24.926 69.1353 1.67323 -39.6511 0.60328 -42.6186 -3.23386 4.24233 -1.78019 26.5373 0.569879 -0.0 0.0 -0.0 10.7697 -8.8629 -20.4492 -23.9884 2.69925 -48.3694 0.258739 7.30405 -0.0165144 -75.3774 7.23308 -5.31806 -6.11557 -22.1776 28.0158 0.0 0.0 0.0 -3.4535 14.1917 -9.3776 7.05316 -0.353995 -1.02335 20.2519 -15.1682 -2.98355 -14.0565 0.0 0.0 -0.0 0.0 -0.0 23.1144 0.251491 -10.8015 -15.8688 -0.321956 -2.40619 6.79233 -26.0143 1.02544 -7.34985 0.0 0.0 0.0 0.0 0.0 
998.604 689.346 -1451.42 5.35877 82.4557 3.89659 -0.00921597 -0.686667 -4.19633 0.00048064 -0.418497 -4.23144 0.0366169 0.477977 -4.22514 0.0117655 -0.194682 -4.24759 -18.2406 9.82135 9.59059 -18.1995 13.7573 12.7095 -0.0 0.0 -0.0 9.29867 13.0244 17.2443 22.0828 -24.2657 68.9781 1.66506 -39.5133 0.598072 -43.6505 -3.34749 4.31034 -1.95077 27.413 0.0483034 -0.0 0.0 -0.0 10.6517 -9.51719 -20.144 -25.2521 2.84325 -47.7388 0.263244 7.42982 -0.0170921 -75.2223 7.21327 -5.31852 -5.87535 -22.8333 25.8683 0.0 0.0 0.0 -3.53689 14.1992 -9.37403 5.87795 -0.286281 -0.855918 21.1765 -15.4022 -3.10957 -15.5732 0.0 0.0 -0.0 0.0 -0.0 23.4169 2.0447 -11.1379 -9.7297 -0.276699 -1.46577 3.94771 -24.2061 0.594791 -11.3756 0.0 0.0 0.0 0.0 0.0 
988.4 686.96 -1453.23 4.03888 81.2544 5.1017 0.0827652 -0.704219 -4.26764 0.0927912 -0.431489 -4.30371 0.130365 0.47338 -4.29931 0.104641 -0.210902 -4.32011 -18.4997 11.1739 10.3642 -18.5018 16.0083 13.9972 -0.0 0.0 -0.0 9.66322 12.7559 17.9255 22.7038 -24.2407 67.9285 1.62061 -38.7547 0.570021 -44.3416 -3.42427 4.35475 -1.65196 24.1791 0.188144 -0.0 0.0 -0.0 10.5485 -10.1795 -19.8669 -26.1238 3.97045 -47.2114 0.2775 7.82731 -0.0189846 -75.0068 7.18574 -5.31906 -5.5672 -22.3742 24.2185 0.0 0.0 0.0 -4.20837 14.2294 -9.4569 4.7236 -0.223136 -0.690167 24.917 -13.4323 -3.53528 -16.4422 0.0 0.0 -0.0 0.0 -0.0 23.1685 4.33967 -11.7219 -1.62545 -0.0635066 -0.241357 1.31884 -16.8545 0.194513 -14.6553 0.0 0.0 0.0 0.0 0.0 
973.263 678.684 -1455.7 3.81384 80.3504 5.31998 0.196077 -0.747012 -4.34514 0.206455 -0.469279 -4.38376 0.24744 0.444026 -4.38639 0.220689 -0.253602 -4.40147 -18.5307 11.818 10.2412 -18.597 17.3251 14.1532 -0.0 0.0 -0.0 9.95399 12.5589 18.4729 23.3204 -24.0288 67.2257 1.64454 -39.1651 0.585065 -44.8258 -3.47839 4.38531 -1.23746 18.9015 0.211284 -0.0 0.0 -0.0 10.2197 -10.8515 -19.1693 -26.6527 4.76566 -47.2892 0.198194 5.60743 -0.00970615 -74.698 7.14628 -5.31965 -5.80678 -22.9685 25.309 0.0 0.0 0.0 -4.98661 14.766 -9.49039 3.72127 -0.171032 -0.545258 29.2869 -12.5983 -4.02512 -17.1005 0.0 0.0 -0.0 0.0 -0.0 23.2859 6.01426 -11.4408 6.77679 0.337761 0.984098 -2.44647 -2.51573 -0.361973 -18.8744 0.0 0.0 0.0 0.0 0.0 
958.932 680.087 -1462.83 2.84222 80.8846 6.2769 0.278264 -0.771091 -4.35246 0.288665 -0.492844 -4.3926 0.331349 0.416267 -4.40051 0.304448 -0.283238 -4.41104 -18.9333 12.8156 10.6708 -19.0733 19.1126 15.0369 -0.0 0.0 -0.0 9.89917 12.8931 18.3324 21.5731 -23.5047 66.6238 1.78115 -41.4192 0.673429 -45.1082 -3.51006 4.40292 -0.915797 14.0977 0.0651034 -0.0 0.0 -0.0 10.5586 -11.7396 -19.6841 -27.3011 4.72905 -47.0127 0.19341 5.47293 -0.00924435 -73.6984 7.01854 -5.3201 -5.48379 -23.2711 22.9867 0.0 0.0 0.0 -6.41257 12.8691 -9.94061 3.39407 -0.154575 -0.497764 30.635 -12.2703 -4.16583 -18.6266 0.0 0.0 -0.0 0.0 -0.0 23.9993 6.98145 -11.7755 8.56967 0.446441 1.23733 -7.01638 -0.754147 -1.05131 -19.6257 0.0 0.0 0.0 0.0 0.0 
